<svg xmlns="http://www.w3.org/2000/svg" xmlns:xlink="http://www.w3.org/1999/xlink" width="108.95" height="96.241" viewBox="0 0 108.95 96.241">
  <defs>
    <linearGradient id="linear-gradient" x1="0.5" x2="0.823" y2="1.222" gradientUnits="objectBoundingBox">
      <stop offset="0" stop-color="#169770"/>
      <stop offset="1" stop-color="#37f3bb"/>
    </linearGradient>
  </defs>
  <path id="HIPAA_COMPLIANT" data-name="HIPAA COMPLIANT" d="M137.652,195.808c.041,2.865.082,4.952.123,5.975a.7.7,0,0,1,0,.409v.286a5.74,5.74,0,0,0,.246,1.678,5.74,5.74,0,0,0,.246-1.678c0-.2.082-3.192.2-7.98-.041.041-.082.082-.082.123A7.153,7.153,0,0,0,137.652,195.808Zm-8.512-59.745a10.985,10.985,0,0,0,1.719-2.373c-.327.737-1.6,3.519-.368,3.765,1.35.246,2.865-.164,5.606-3.642-.082-4.46-.164-8.348-.2-11.294h-1.678a3.382,3.382,0,0,1-3.069-1.432,7.359,7.359,0,0,1-1.064-4.092c-.041-1.6-.45-4.5-2.455-6.138-1.391-1.1-5.156-1.964-8.634-.573-1.146.45-3.437,1.637-5.688,2.742-2.046,1.023-4.665,2.292-5.483,2.292,1.35-.614,3.151-1.514,5.115-2.619,2.251-1.228,4.624-2.537,5.811-3.028,2.373-.941,6.916-1.228,9.248.655,2.21,1.8,2.66,4.911,2.7,6.588a7.057,7.057,0,0,0,.941,3.806,2.986,2.986,0,0,0,2.742,1.146h1.473V120.8c-1.309.082-3.192.164-4.01-1.6-.982-2.128.082-7.57-3.192-9.862s-8.512-1.719-13.177.982a140.407,140.407,0,0,1-18.333,9.166c-7.57,3.028-12.276,4.256-13.177,4.379-.859.164.7.737,3.928.818a57.312,57.312,0,0,0,5.934-.164l23.734-10.8S97.1,123.909,95.38,125.014s-3.11,1.473-2.987,2.5,1.432.9,5.033.818a16.006,16.006,0,0,0,5.606-.777c1.228-.368,14.527-6.507,14.527-6.507s-14.241,7.079-16.287,8.716.164,2.169,1.555,2.21c1.432.041,5.238-.164,7.366-1.228s8.757-5.32,8.757-5.32-6.547,4.706-7.816,5.77c-1.023.859-1.555,1.6-1.309,2.5.368,1.146,2.333,1.023,4.951.082a15.429,15.429,0,0,0,3.724-1.841c1.023-.941,3.888-3.478,3.888-3.478a43.42,43.42,0,0,0-4.256,5.033c-.818,1.514-.982,1.882-.573,2.742.573,1.228,4.911-.041,6.138-1.35a32.694,32.694,0,0,0,2.537-3.233,16.132,16.132,0,0,0-1.6,3.356c-.286,1.228-.614,2.21.573,2.333A3.794,3.794,0,0,0,129.14,136.063Zm8.1,27.868.368-.246h0a3.982,3.982,0,0,0,.614-.45c.327-.2.655-.45.982-.655.041-2.333.123-4.706.164-7.039q-.982-.43-2.087-.859h0c-.041,0-.082-.041-.123-.041-.082-.041-.123-.041-.2-.082h0c-.491-.164-.941-.368-1.473-.532-.614-.246-1.228-.45-1.841-.7-4.092,2.169-4.911,3.192-4.911,5.2,0,2.824,2.414,4.092,6.588,6.752C135.974,164.79,136.629,164.34,137.242,163.93Zm-5.033-5.033s-.286-1.8,4.338-3.888c.123-.041.246-.123.368-.164.041,2.824.082,5.647.164,8.471C134.787,161.761,132.209,160.288,132.209,158.9Zm7,34.742c-.2.246-.409.491-.614.7,1.187,1.6,1.1,3.151.45,5.156a4.319,4.319,0,0,0,.818-4.747c-.2-.368-.409-.737-.655-1.1Zm-1.882-16.778,1.514,1.514h0l1.023,1.023c.041.041.123.082.2.164,2.783-2.414,5.32-4.706,5.32-7.571,0-2.251-2.169-4.3-4.338-5.934a5.342,5.342,0,0,0-.614.409c-.491.327-.941.614-1.35.9h0a.04.04,0,0,0-.041.041c-.082.082-.2.123-.286.2h0c-.573.409-1.1.777-1.6,1.146.082,2.742.123,5.483.164,8.1Zm1.76-9.044c2.7,1.964,3.765,3.233,3.765,4.624,0,1.432-1.514,3.11-3.969,5.565.041-3.274.123-6.67.2-10.189Zm14.936-39.326s2.865,2.537,3.888,3.478a13.97,13.97,0,0,0,3.724,1.841c2.619.941,4.583,1.064,4.952-.082.286-.9-.286-1.678-1.309-2.5-1.269-1.064-7.816-5.77-7.816-5.77s6.629,4.256,8.757,5.32,5.934,1.269,7.366,1.228,3.6-.573,1.555-2.21-16.287-8.716-16.287-8.716,13.259,6.179,14.527,6.507a17.118,17.118,0,0,0,5.606.778c3.6.082,4.87.2,5.033-.818.164-.982-1.269-1.35-2.987-2.5-1.719-1.1-22.179-11.294-22.179-11.294l23.734,10.8a57.3,57.3,0,0,0,5.934.164c3.233-.082,4.788-.655,3.928-.818a90.431,90.431,0,0,1-13.177-4.379,135.425,135.425,0,0,1-18.333-9.166c-4.624-2.66-9.9-3.274-13.177-.982s-2.21,7.693-3.192,9.862c-.818,1.76-2.7,1.678-4.01,1.6a9.613,9.613,0,0,1-.041,1.064h1.514a2.986,2.986,0,0,0,2.742-1.146,6.975,6.975,0,0,0,.941-3.806c.041-1.678.491-4.788,2.7-6.588,2.333-1.882,6.875-1.6,9.248-.655a59.781,59.781,0,0,1,5.811,3.028c1.964,1.1,3.765,2.005,5.115,2.619-.859,0-3.437-1.269-5.483-2.292-2.21-1.146-4.5-2.292-5.688-2.742-3.478-1.391-7.243-.532-8.634.573-2.046,1.637-2.414,4.542-2.455,6.138a7.282,7.282,0,0,1-1.064,4.092,3.311,3.311,0,0,1-3.069,1.432h-1.678c-.082,2.946-.164,6.793-.246,11.172,2.783,3.56,4.379,4.01,5.688,3.724,1.228-.246,0-3.028-.368-3.765a14.03,14.03,0,0,0,1.719,2.373,3.8,3.8,0,0,0,3.847,1.31c1.228-.164.859-1.1.573-2.333a16.133,16.133,0,0,0-1.6-3.356,38.29,38.29,0,0,0,2.537,3.233c1.228,1.309,5.565,2.619,6.138,1.35.368-.818.246-1.228-.573-2.742C157.458,132.012,154.02,128.492,154.02,128.492ZM138.265,115.97a3.267,3.267,0,0,0,1.841-.573,3.557,3.557,0,0,0,1.228-1.473,3.435,3.435,0,0,0,.2-1.923,3.5,3.5,0,0,0-.9-1.719,3.332,3.332,0,0,0-1.719-.9,3.319,3.319,0,0,0-3.4,1.432,3.267,3.267,0,0,0-.573,1.841,3.335,3.335,0,0,0,.246,1.269,2.768,2.768,0,0,0,.737,1.064,3.114,3.114,0,0,0,1.064.737,3.188,3.188,0,0,0,1.269.246Zm10.885,24.88s-.082-2.292-3.806-2.537c-3.806-.246-3.969,1.391-3.888,2.005h0c.286,0,.532.082.532.164s-.2.164-.45.164c.2.614.777,1.35,2.414,2.169a3.991,3.991,0,0,0,2.783.491,1.859,1.859,0,0,1,.9,1.391c0,.818-1.432,2.414-8.143,5.77.409-18.087.778-33.965.778-33.965h.409a.7.7,0,0,0,.655-.655v-.2a.519.519,0,0,0-.041-.246.409.409,0,0,0-.164-.2,4.232,4.232,0,0,1-1.269.982,3.431,3.431,0,0,1-1.555.327,4.073,4.073,0,0,1-1.555-.327,3.323,3.323,0,0,1-1.269-.982.718.718,0,0,0-.164.2.519.519,0,0,0-.041.246v.2a.7.7,0,0,0,.655.655h.409s.286,15.427.573,33.187l1.8.9c.082.041.2.082.286.123,1.514.737,2.783,1.35,3.847,1.923,3.6-1.391,7.12-2.987,8.184-5.238A5.175,5.175,0,0,0,149.151,140.851Zm-4.992-.941c-.409,0-.737-.2-.737-.45s.327-.45.737-.45.737.2.737.45-.327.45-.737.45Zm-6.507,51.807c.327-.409.614-.818.941-1.187.041-2.333.123-4.951.164-7.775-.409-.409-.859-.818-1.35-1.269h0c-.164-.123-.286-.286-.45-.409a7.108,7.108,0,0,0-.614-.532c-1.146,1.064-3.4,3.437-3.4,5.483,0,2.414,2.333,4.87,4.092,6.629a3.737,3.737,0,0,1,.614-.941Zm-.246-9.739c.082,3.478.123,6.67.164,9.412-1.35-1.8-2.783-3.642-2.783-4.911,0-1.187.7-2.537,2.619-4.5Zm.941-30.855c-7.98-3.847-9.617-5.606-9.617-6.466a1.859,1.859,0,0,1,.9-1.391,3.777,3.777,0,0,0,2.783-.491c1.637-.778,2.21-1.555,2.414-2.169-.246,0-.45-.082-.45-.164s.246-.164.532-.164v-.041c.041-.614-.164-2.21-3.928-1.964-3.724.246-3.806,2.537-3.806,2.537a5.08,5.08,0,0,0-1.8,6.507c1.719,3.642,9.78,5.565,14.445,7.652,4.624,2.087,4.338,3.888,4.338,3.888,0,1.555-3.11,3.192-5.565,4.911s-7.652,4.706-7.652,8.225c0,3.233,3.233,5.729,6.384,8.512,3.192,2.783,4.215,4.46,4.215,6.015,0,2.128-3.519,4.992-5.32,8.553s1.76,9.085.655,6.179a6.625,6.625,0,0,1,.941-7c1.8-2.5,5.647-4.951,5.647-8.266,0-2.783-4.051-6.056-4.051-6.056-3.6-3.6-5.893-5.647-5.893-7.448s1.719-3.4,6.547-6.547c4.788-3.11,7.611-4.338,7.611-7.366C147.677,155.91,146.327,154.969,138.347,151.122Zm-6.138-12.072c.409,0,.737.2.737.45s-.327.45-.737.45-.737-.2-.737-.45.327-.45.737-.45Z" transform="translate(-83.729 -107.915)" fill="url(#linear-gradient)"/>
</svg>
