<svg xmlns="http://www.w3.org/2000/svg" xmlns:xlink="http://www.w3.org/1999/xlink" width="76.146" height="77.218" viewBox="0 0 76.146 77.218">
  <defs>
    <linearGradient id="linear-gradient" x1="0.5" x2="0.823" y2="1.222" gradientUnits="objectBoundingBox">
      <stop offset="0" stop-color="#169770"/>
      <stop offset="1" stop-color="#37f3bb"/>
    </linearGradient>
  </defs>
  <path id="Path_1681" data-name="Path 1681" d="M78.683,41.062a5.989,5.989,0,0,0-5.8,4.652H52.995a1.4,1.4,0,0,0,0,2.791h19.89a5.973,5.973,0,1,0,5.8-7.443Zm0,9.3a3.256,3.256,0,1,1,3.211-3.256A3.238,3.238,0,0,1,78.683,50.365ZM52.995,37.34H74a3.331,3.331,0,0,0,3.3-3.351v-11.7a5.964,5.964,0,1,0-2.752,0v11.7a.558.558,0,0,1-.552.56H52.995a1.4,1.4,0,0,0,0,2.791ZM72.719,16.408a3.211,3.211,0,1,1,3.211,3.256A3.238,3.238,0,0,1,72.719,16.408ZM52.995,28.037h4.494a3.331,3.331,0,0,0,3.3-3.351v-2.4a5.964,5.964,0,1,0-2.752,0v2.4a.558.558,0,0,1-.552.56H52.995a1.4,1.4,0,0,0,0,2.791Zm3.211-11.629a3.211,3.211,0,1,1,3.211,3.256A3.238,3.238,0,0,1,56.206,16.408Zm21.1,55.522v-11.7A3.338,3.338,0,0,0,74,56.878H53a1.4,1.4,0,0,0,0,2.791H74a.558.558,0,0,1,.552.56v11.7a5.964,5.964,0,1,0,2.752,0ZM75.93,81.066a3.256,3.256,0,1,1,3.211-3.256A3.238,3.238,0,0,1,75.93,81.066ZM60.793,71.93v-2.4a3.338,3.338,0,0,0-3.3-3.351H52.995a1.4,1.4,0,0,0,0,2.791h4.494a.558.558,0,0,1,.552.56v2.4a5.964,5.964,0,1,0,2.752,0Zm-1.376,9.136a3.256,3.256,0,1,1,3.211-3.256A3.238,3.238,0,0,1,59.417,81.066ZM38.416,8.5a9.318,9.318,0,0,0-9.468,7.835C22.939,17.72,18.692,22.688,18.692,28.5a12.148,12.148,0,0,0,.283,2.587A18.013,18.013,0,0,0,8.5,47.109a17.469,17.469,0,0,0,6.633,13.574,8.307,8.307,0,0,0-.247.894.479.479,0,0,1-.011.047,10.046,10.046,0,0,0-.258,2.231c0,5.469,4.469,10,10.21,10.626-.011.178-.018.363-.018.538,0,5.9,5.193,10.7,11.568,10.7s11.568-4.8,11.568-10.7l0-9.3V17.339c0-4.873-4.275-8.838-9.533-8.838ZM17.609,59.083c-.412-.3-.806-.625-1.183-.948a10.95,10.95,0,0,1,2.946-2.929,1.36,1.36,0,0,1,1.906.392,1.4,1.4,0,0,1-.387,1.933,8.025,8.025,0,0,0-2.863,3.329c.011-.011.011-.029.018-.036a1.415,1.415,0,0,0-.437-1.741Zm4.322-27.689-.054-.2a9.512,9.512,0,0,0,2.193,3.667,1.412,1.412,0,0,1-.029,1.973,1.366,1.366,0,0,1-.953.392A1.343,1.343,0,0,1,22.1,36.8a12.6,12.6,0,0,1-2.157-3.078c.394-.2.806-.392,1.218-.567a1.389,1.389,0,0,0,.77-1.763ZM24.149,48.5a1.386,1.386,0,0,1-1.376-1.4c0-4.365,3.817-7.908,8.515-7.908h2.036a3.517,3.517,0,0,0,3.723-3.256,1.376,1.376,0,1,1,2.752,0,6.286,6.286,0,0,1-6.476,6.047H31.288c-3.175,0-5.763,2.3-5.763,5.117A1.391,1.391,0,0,1,24.149,48.5ZM34.635,62.172a1.386,1.386,0,0,1-1.376-1.4,6.96,6.96,0,0,1,3.347-6.149A7.107,7.107,0,0,1,34.4,52.356a1.4,1.4,0,0,1,.459-1.915,1.36,1.36,0,0,1,1.889.465,4.984,4.984,0,0,0,4.494,2.242,4.858,4.858,0,0,0,3.953-2.631V54.6a7.735,7.735,0,0,1-3.763,1.341c-.176.011-.358.018-.53.018a1.912,1.912,0,0,1-.211-.018c-3.1.752-4.68,2.38-4.68,4.848a1.37,1.37,0,0,1-1.369,1.381ZM40.1,70.367a1.386,1.386,0,0,1,1.376-1.4A3.517,3.517,0,0,0,45.2,65.715v4.939a6.735,6.735,0,0,1-3.723,1.108A1.391,1.391,0,0,1,40.1,70.367ZM45.2,29.8c-3.569-.465-7.228-2.689-8.121-6.56a1.377,1.377,0,1,1,2.681-.632c.624,2.7,3.24,3.99,5.44,4.372ZM26.83,68.983a1.366,1.366,0,0,1,1.928-.28,1.411,1.411,0,0,1,.276,1.955,7.457,7.457,0,0,0-1.34,3.078c.018-.094.029-.178.047-.269a1.439,1.439,0,0,0-.265-1.181,1.355,1.355,0,0,0-1.075-.52h-.2c-.276,0-.541-.018-.817-.036a9.99,9.99,0,0,1,1.448-2.747Z" transform="translate(-8.5 -8.5)" fill="url(#linear-gradient)"/>
</svg>
