<svg xmlns="http://www.w3.org/2000/svg" width="15.498" height="15.459" viewBox="0 0 15.498 15.459">
  <path id="Path_1682" data-name="Path 1682" d="M-7.754-7A4.052,4.052,0,0,1-6.67-9.8a3.974,3.974,0,0,1,1.2-2.661,3.992,3.992,0,0,1,2.705-1.226A4,4,0,0,1,0-14.756,3.939,3.939,0,0,1,2.754-13.7a4,4,0,0,1,1.9.586,4.165,4.165,0,0,1,1.426,1.421,3.972,3.972,0,0,1,.586,1.9A3.968,3.968,0,0,1,7.744-7.021,3.911,3.911,0,0,1,6.67-4.258a4,4,0,0,1-1.2,2.7A3.972,3.972,0,0,1,2.754-.352,3.939,3.939,0,0,1,0,.7,3.97,3.97,0,0,1-2.744-.342a4.062,4.062,0,0,1-1.9-.576A4.15,4.15,0,0,1-6.084-2.334a3.957,3.957,0,0,1-.6-1.914,4.128,4.128,0,0,1-.791-1.27A3.985,3.985,0,0,1-7.754-7Zm1.006-.01a3.239,3.239,0,0,0,.264,1.27,4.076,4.076,0,0,1,1.523-2.07,4.049,4.049,0,0,1,2.4-.771A4.1,4.1,0,0,1-.7-8.145a3.017,3.017,0,0,0-1.152-1.45,3.077,3.077,0,0,0-1.768-.552,3.047,3.047,0,0,0-1.577.43A3.08,3.08,0,0,0-6.338-8.56,3.1,3.1,0,0,0-6.748-7.012Zm1.289-3.7a3.972,3.972,0,0,1,1.836-.43,4.065,4.065,0,0,1,2.407.781A3.946,3.946,0,0,1,.293-8.311,2.987,2.987,0,0,0,.566-9.59a3,3,0,0,0-.425-1.543,3.14,3.14,0,0,0-1.147-1.143,3.039,3.039,0,0,0-1.553-.42,3.051,3.051,0,0,0-1.758.547A3.014,3.014,0,0,0-5.459-10.713ZM0-13.76a3.028,3.028,0,0,0-1.26.273,3.523,3.523,0,0,1,1.372.767,4.3,4.3,0,0,1,1.055,1.382,3.933,3.933,0,0,1,.4,1.748,4.037,4.037,0,0,1-.439,1.865,3.009,3.009,0,0,0,1.46-1.162,3.085,3.085,0,0,0,.542-1.748A2.989,2.989,0,0,0,2.2-12.847,3.027,3.027,0,0,0,0-13.76ZM3.682-12.5a4.076,4.076,0,0,1,.439,1.865,4.05,4.05,0,0,1-.781,2.4A3.948,3.948,0,0,1,1.3-6.729a2.991,2.991,0,0,0,1.26.264A3.048,3.048,0,0,0,4.131-6.89,3.076,3.076,0,0,0,5.264-8.032a3.086,3.086,0,0,0,.41-1.558,3.062,3.062,0,0,0-.552-1.758A3.023,3.023,0,0,0,3.682-12.5ZM6.475-8.291a4.055,4.055,0,0,1-1.5,2.046,4.013,4.013,0,0,1-2.412.786A4.075,4.075,0,0,1,.713-5.9a2.9,2.9,0,0,0,1.152,1.46,3.141,3.141,0,0,0,1.758.532,3.024,3.024,0,0,0,1.592-.43A3.067,3.067,0,0,0,6.333-5.5a3.105,3.105,0,0,0,.405-1.523A3.058,3.058,0,0,0,6.475-8.291ZM5.469-3.34A4.2,4.2,0,0,1,3.623-2.9a4.051,4.051,0,0,1-2.417-.781A4.015,4.015,0,0,1-.3-5.742,3.17,3.17,0,0,0-.566-4.463,3.039,3.039,0,0,0-.146-2.91,3.042,3.042,0,0,0,1.025-1.768a3.347,3.347,0,0,0,1.66.42,2.794,2.794,0,0,0,1.655-.547A3.2,3.2,0,0,0,5.469-3.34ZM0-.293A3.162,3.162,0,0,0,1.279-.566,4.145,4.145,0,0,1-.786-2.07a3.961,3.961,0,0,1-.776-2.393,4.091,4.091,0,0,1,.43-1.855A3.119,3.119,0,0,0-2.588-5.142,3.092,3.092,0,0,0-3.115-3.4,3,3,0,0,0-2.69-1.855,3.129,3.129,0,0,0-1.538-.713,3.03,3.03,0,0,0,0-.293Zm-3.672-1.25a3.915,3.915,0,0,1-.439-1.895A3.979,3.979,0,0,1-3.33-5.825a4.045,4.045,0,0,1,2.021-1.5,3.123,3.123,0,0,0-1.26-.264,3.04,3.04,0,0,0-1.548.415A3.081,3.081,0,0,0-5.259-6.021a3.09,3.09,0,0,0-.425,1.567,3.008,3.008,0,0,0,.566,1.777A3.072,3.072,0,0,0-3.672-1.543Z" transform="translate(7.754 14.756)" fill="#a7e3e4"/>
</svg>
