<svg xmlns="http://www.w3.org/2000/svg" xmlns:xlink="http://www.w3.org/1999/xlink" width="75.753" height="75.752" viewBox="0 0 75.753 75.752">
  <defs>
    <linearGradient id="linear-gradient" x1="0.5" x2="0.823" y2="1.222" gradientUnits="objectBoundingBox">
      <stop offset="0" stop-color="#169770"/>
      <stop offset="1" stop-color="#37f3bb"/>
    </linearGradient>
  </defs>
  <path id="Union_10" data-name="Union 10" d="M4976.4-12100.924a17.7,17.7,0,0,1,17.676-17.676,17.7,17.7,0,0,1,17.676,17.676,17.693,17.693,0,0,1-17.676,17.676A17.7,17.7,0,0,1,4976.4-12100.924Zm11.962-6.466v3.563a3.8,3.8,0,0,0-3.037,3.714v7.574a3.792,3.792,0,0,0,3.788,3.788h9.927a3.792,3.792,0,0,0,3.788-3.788h0v-7.574a3.8,3.8,0,0,0-3.037-3.714v-3.563a5.717,5.717,0,0,0-5.714-5.71A5.716,5.716,0,0,0,4988.364-12107.39Zm.75,16.113a1.265,1.265,0,0,1-1.265-1.262v-7.574a1.265,1.265,0,0,1,1.265-1.262h9.927a1.261,1.261,0,0,1,1.261,1.262v7.574a1.261,1.261,0,0,1-1.261,1.262Zm2.441-5.647a2.522,2.522,0,0,0,1.261,2.174v1.548a1.262,1.262,0,0,0,1.261,1.264,1.261,1.261,0,0,0,1.261-1.264v-1.548a2.517,2.517,0,0,0,1.265-2.174,2.526,2.526,0,0,0-2.526-2.527A2.525,2.525,0,0,0,4991.555-12096.924Zm-54.292-2.7a1.259,1.259,0,0,1-1.037-.543,1.271,1.271,0,0,1-.147-1.163l12.477-33.449a1.264,1.264,0,0,1,1.184-.819h57.48a3.769,3.769,0,0,1,3,1.47,3.753,3.753,0,0,1,.669,3.273l-3.776,14.526a20.091,20.091,0,0,0-13.033-4.8,20.227,20.227,0,0,0-20.2,20.2c0,.437.038.866.065,1.3Zm53.626-4.275v-3.49a3.192,3.192,0,0,1,3.188-3.187,3.194,3.194,0,0,1,3.188,3.188v3.49ZM4936-12155.213a3.791,3.791,0,0,1,3.788-3.787h23.9a3.785,3.785,0,0,1,3.327,1.977l3.613,6.643a1.259,1.259,0,0,0,1.106.657l27.525,0a3.792,3.792,0,0,1,3.788,3.787v7.814h-9.115v-1.411a3.791,3.791,0,0,0-3.788-3.788h-43.734a3.791,3.791,0,0,0-3.788,3.788v13.432L4936-12108.34Zm9.149,15.676a1.263,1.263,0,0,1,1.266-1.262h43.734a1.262,1.262,0,0,1,1.261,1.266v1.407h-43.425a1.257,1.257,0,0,0-1.184.821l-1.652,4.429Z" transform="translate(-4936 12159)" fill="url(#linear-gradient)"/>
</svg>
