<svg xmlns="http://www.w3.org/2000/svg" xmlns:xlink="http://www.w3.org/1999/xlink" width="95.722" height="93.068" viewBox="0 0 95.722 93.068">
  <defs>
    <linearGradient id="linear-gradient" x1="0.5" x2="0.823" y2="1.222" gradientUnits="objectBoundingBox">
      <stop offset="0" stop-color="#169770"/>
      <stop offset="1" stop-color="#07bec2"/>
    </linearGradient>
  </defs>
  <path id="Union_11" data-name="Union 11" d="M5008.514-12065.935a1.636,1.636,0,0,1-1.135-.521l-9.7-11.315a1.463,1.463,0,0,1,0-1.975l9.7-11.319a1.64,1.64,0,0,1,2.164-.2,1.666,1.666,0,0,1,.105,2.284l-7.426,8.721h12.688a13.764,13.764,0,0,0,13.717-13.706,1.545,1.545,0,0,1,.417-1.17,1.543,1.543,0,0,1,1.131-.491,1.654,1.654,0,0,1,1.545,1.661,16.865,16.865,0,0,1-16.811,16.819h-12.688l7.426,8.619a1.45,1.45,0,0,1,.436,1.114,1.449,1.449,0,0,1-.542,1.068,1.349,1.349,0,0,1-.977.416Zm-48.169-27.828c-.827,0-1.24-.727-1.24-1.556v-1.975a19.811,19.811,0,0,1,15.063-19.313,1.024,1.024,0,0,1,1.029.311,15.37,15.37,0,0,0,8.663,2.8,15.072,15.072,0,0,0,8.667-2.8,1.337,1.337,0,0,1,1.236-.311,19.809,19.809,0,0,1,14.856,19.313v1.975c0,.829-.414,1.556-1.24,1.556Zm10.211-37.178a13.349,13.349,0,0,1,13.3-13.394,13.351,13.351,0,0,1,13.309,13.394,13.352,13.352,0,0,1-13.309,13.4A13.35,13.35,0,0,1,4970.556-12130.94Zm-34.557,0a16.872,16.872,0,0,1,16.814-16.821h13.616l-7.528-8.621a1.561,1.561,0,0,1,.207-2.18,1.44,1.44,0,0,1,1.1-.441,1.451,1.451,0,0,1,1.06.545l9.7,11.318a1.78,1.78,0,0,1,0,1.975l-9.7,11.315a1.342,1.342,0,0,1-1.135.522,1.73,1.73,0,0,1-1.03-.313,1.771,1.771,0,0,1-.207-2.285l7.528-8.721h-13.616a13.763,13.763,0,0,0-13.718,13.707,1.571,1.571,0,0,1-.417,1.168,1.547,1.547,0,0,1-1.131.493A1.664,1.664,0,0,1,4936-12130.937Z" transform="translate(-4935.999 12159.002)" fill="url(#linear-gradient)"/>
</svg>
