<svg xmlns="http://www.w3.org/2000/svg" xmlns:xlink="http://www.w3.org/1999/xlink" width="67.365" height="74.822" viewBox="0 0 67.365 74.822">
  <defs>
    <linearGradient id="linear-gradient" x1="0.5" x2="0.823" y2="1.222" gradientUnits="objectBoundingBox">
      <stop offset="0" stop-color="#169770"/>
      <stop offset="1" stop-color="#37f3bb"/>
    </linearGradient>
  </defs>
  <path id="Path_1674" data-name="Path 1674" d="M80.407,10H25.373a.951.951,0,0,0-.946.946V58.329a6.45,6.45,0,0,0-8.334,6.153v3.292a2.5,2.5,0,0,0-2.1,2.477v6.032a8.541,8.541,0,0,0,16.123,3.928l32.619,0a2.642,2.642,0,0,0,.373-.029,2.349,2.349,0,0,0,1.33-.672l16.65-16.65a.973.973,0,0,0,.27-.672V10.946A.951.951,0,0,0,80.407,10ZM24.869,79.315a.98.98,0,0,1-.384.281,1.163,1.163,0,0,1-.533.132H21.091a1.162,1.162,0,0,1-.906-.42,1.187,1.187,0,0,1-.27-.965l.5-3.19a2.421,2.421,0,0,1,1.611-3.526,2.379,2.379,0,0,1,2.039.486,3.074,3.074,0,0,1,.384.373,2.372,2.372,0,0,1,.522,1.505,2.5,2.5,0,0,1-.289,1.158l.5,3.19a1.334,1.334,0,0,1-.307.976Zm2.2-11.571H17.993V64.482a4.542,4.542,0,0,1,4.538-4.538,4.4,4.4,0,0,1,1.9.42,4.639,4.639,0,0,1,1.308.906,4.82,4.82,0,0,1,.588.72,4.45,4.45,0,0,1,.738,2.488Zm7.483-47.176H71.229a.946.946,0,1,1,0,1.893l-36.682,0a.944.944,0,1,1,0-1.889Zm0,9.529H71.229a.946.946,0,1,1,0,1.893H34.547a.946.946,0,1,1,0-1.893Zm0,9.532H71.229a.946.946,0,1,1,0,1.893l-36.682,0a.944.944,0,1,1,0-1.889ZM52.888,70.123H34.547a.946.946,0,0,1,0-1.893H52.888a.946.946,0,0,1,0,1.893Zm.731-9.532H34.546a.946.946,0,1,1,0-1.893H53.618a.946.946,0,0,1,0,1.893ZM34.546,51.059a.946.946,0,1,1,0-1.893H71.228a.946.946,0,0,1,0,1.893ZM64.272,76.971V63.134H78.1Z" transform="translate(-13.988 -10)" fill="url(#linear-gradient)"/>
</svg>
